REM DIRINDEX 1\6,1\2\7,1\2\8,1\2\9,1\3\10,1\3\11,1\4\12,1\4\13,1\4\14,1\5\15,1\5\16,1\5\17
REM DIRNAME cjc040,folder01,folder02,folder03,folder04,folder05,folder06,folder07,folder08,folder09,folder10,folder11,folder12,folder13,folder14,folder15,folder16
TITLE ""
FILE "P2Q_j_1086-1099.mp3" MP3
  TRACK 01 AUDIO
    TITLE "6:cjc040_0001"
    INDEX 01 00:00:00
  TRACK 02 AUDIO
    TITLE "0:"
    INDEX 01 00:04:44
  TRACK 03 AUDIO
    TITLE "12:cjc040_0002"
    INDEX 01 00:05:59
  TRACK 04 AUDIO
    TITLE "0:"
    INDEX 01 00:07:64
  TRACK 05 AUDIO
    TITLE "13:cjc040_0003"
    INDEX 01 00:08:44
  TRACK 06 AUDIO
    TITLE "0:"
    INDEX 01 00:11:07
  TRACK 07 AUDIO
    TITLE "14:cjc040_0004"
    INDEX 01 00:11:56
  TRACK 08 AUDIO
    TITLE "0:"
    INDEX 01 00:15:70
  TRACK 09 AUDIO
    TITLE "12:cjc040_0005"
    INDEX 01 00:16:51
  TRACK 10 AUDIO
    TITLE "0:"
    INDEX 01 00:18:05
  TRACK 11 AUDIO
    TITLE "13:cjc040_0006"
    INDEX 01 00:18:60
  TRACK 12 AUDIO
    TITLE "0:"
    INDEX 01 00:22:03
  TRACK 13 AUDIO
    TITLE "14:cjc040_0007"
    INDEX 01 00:22:58
  TRACK 14 AUDIO
    TITLE "0:"
    INDEX 01 00:26:62
  TRACK 15 AUDIO
    TITLE "12:cjc040_0008"
    INDEX 01 00:27:41
  TRACK 16 AUDIO
    TITLE "0:"
    INDEX 01 00:28:74
  TRACK 17 AUDIO
    TITLE "13:cjc040_0009"
    INDEX 01 00:29:60
  TRACK 18 AUDIO
    TITLE "0:"
    INDEX 01 00:33:17
  TRACK 19 AUDIO
    TITLE "14:cjc040_0010"
    INDEX 01 00:34:04
  TRACK 20 AUDIO
    TITLE "0:"
    INDEX 01 00:40:03
  TRACK 21 AUDIO
    TITLE "12:cjc040_0011"
    INDEX 01 00:40:58
  TRACK 22 AUDIO
    TITLE "0:"
    INDEX 01 00:42:35
  TRACK 23 AUDIO
    TITLE "13:cjc040_0012"
    INDEX 01 00:43:17
  TRACK 24 AUDIO
    TITLE "0:"
    INDEX 01 00:44:71
  TRACK 25 AUDIO
    TITLE "14:cjc040_0013"
    INDEX 01 00:45:51
  TRACK 26 AUDIO
    TITLE "0:"
    INDEX 01 00:52:22
  TRACK 27 AUDIO
    TITLE "12:cjc040_0014"
    INDEX 01 00:53:00
  TRACK 28 AUDIO
    TITLE "0:"
    INDEX 01 00:54:34
  TRACK 29 AUDIO
    TITLE "13:cjc040_0015"
    INDEX 01 00:55:10
  TRACK 30 AUDIO
    TITLE "0:"
    INDEX 01 00:56:55
  TRACK 31 AUDIO
    TITLE "14:cjc040_0016"
    INDEX 01 00:57:37
  TRACK 32 AUDIO
    TITLE "0:"
    INDEX 01 01:03:57
  TRACK 33 AUDIO
    TITLE "12:cjc040_0017"
    INDEX 01 01:04:45
  TRACK 34 AUDIO
    TITLE "0:"
    INDEX 01 01:06:10
  TRACK 35 AUDIO
    TITLE "13:cjc040_0018"
    INDEX 01 01:06:63
  TRACK 36 AUDIO
    TITLE "0:"
    INDEX 01 01:08:23
  TRACK 37 AUDIO
    TITLE "14:cjc040_0019"
    INDEX 01 01:09:01
  TRACK 38 AUDIO
    TITLE "0:"
    INDEX 01 01:13:38
  TRACK 39 AUDIO
    TITLE "12:cjc040_0020"
    INDEX 01 01:14:19
  TRACK 40 AUDIO
    TITLE "0:"
    INDEX 01 01:15:48
  TRACK 41 AUDIO
    TITLE "13:cjc040_0021"
    INDEX 01 01:16:22
  TRACK 42 AUDIO
    TITLE "0:"
    INDEX 01 01:17:28
  TRACK 43 AUDIO
    TITLE "14:cjc040_0022"
    INDEX 01 01:18:15
  TRACK 44 AUDIO
    TITLE "0:"
    INDEX 01 01:23:48
  TRACK 45 AUDIO
    TITLE "12:cjc040_0023"
    INDEX 01 01:24:36
  TRACK 46 AUDIO
    TITLE "0:"
    INDEX 01 01:25:68
  TRACK 47 AUDIO
    TITLE "13:cjc040_0024"
    INDEX 01 01:26:44
  TRACK 48 AUDIO
    TITLE "0:"
    INDEX 01 01:28:27
  TRACK 49 AUDIO
    TITLE "14:cjc040_0025"
    INDEX 01 01:29:03
  TRACK 50 AUDIO
    TITLE "0:"
    INDEX 01 01:34:01
  TRACK 51 AUDIO
    TITLE "12:cjc040_0026"
    INDEX 01 01:34:57
  TRACK 52 AUDIO
    TITLE "0:"
    INDEX 01 01:36:13
  TRACK 53 AUDIO
    TITLE "13:cjc040_0027"
    INDEX 01 01:36:66
  TRACK 54 AUDIO
    TITLE "0:"
    INDEX 01 01:38:53
  TRACK 55 AUDIO
    TITLE "14:cjc040_0028"
    INDEX 01 01:39:33
  TRACK 56 AUDIO
    TITLE "0:"
    INDEX 01 01:44:28
  TRACK 57 AUDIO
    TITLE "12:cjc040_0029"
    INDEX 01 01:45:10
  TRACK 58 AUDIO
    TITLE "0:"
    INDEX 01 01:46:68
  TRACK 59 AUDIO
    TITLE "13:cjc040_0030"
    INDEX 01 01:47:54
  TRACK 60 AUDIO
    TITLE "0:"
    INDEX 01 01:49:55
  TRACK 61 AUDIO
    TITLE "14:cjc040_0031"
    INDEX 01 01:50:41
  TRACK 62 AUDIO
    TITLE "0:"
    INDEX 01 01:59:18
  TRACK 63 AUDIO
    TITLE "12:cjc040_0032"
    INDEX 01 01:59:67
  TRACK 64 AUDIO
    TITLE "0:"
    INDEX 01 02:02:09
  TRACK 65 AUDIO
    TITLE "13:cjc040_0033"
    INDEX 01 02:02:62
  TRACK 66 AUDIO
    TITLE "0:"
    INDEX 01 02:04:43
  TRACK 67 AUDIO
    TITLE "14:cjc040_0034"
    INDEX 01 02:05:27
  TRACK 68 AUDIO
    TITLE "0:"
    INDEX 01 02:08:64
  TRACK 69 AUDIO
    TITLE "12:cjc040_0035"
    INDEX 01 02:09:46
  TRACK 70 AUDIO
    TITLE "0:"
    INDEX 01 02:10:55
  TRACK 71 AUDIO
    TITLE "13:cjc040_0036"
    INDEX 01 02:11:39
  TRACK 72 AUDIO
    TITLE "0:"
    INDEX 01 02:13:34
  TRACK 73 AUDIO
    TITLE "14:cjc040_0037"
    INDEX 01 02:14:20
  TRACK 74 AUDIO
    TITLE "0:"
    INDEX 01 02:20:52
  TRACK 75 AUDIO
    TITLE "12:cjc040_0038"
    INDEX 01 02:21:41
  TRACK 76 AUDIO
    TITLE "0:"
    INDEX 01 02:22:72
  TRACK 77 AUDIO
    TITLE "13:cjc040_0039"
    INDEX 01 02:23:44
  TRACK 78 AUDIO
    TITLE "0:"
    INDEX 01 02:25:06
  TRACK 79 AUDIO
    TITLE "14:cjc040_0040"
    INDEX 01 02:25:63
  TRACK 80 AUDIO
    TITLE "0:"
    INDEX 01 02:31:12
  TRACK 81 AUDIO
    TITLE "12:cjc040_0041"
    INDEX 01 02:31:69
  TRACK 82 AUDIO
    TITLE "0:"
    INDEX 01 02:33:11
  TRACK 83 AUDIO
    TITLE "13:cjc040_0042"
    INDEX 01 02:33:70
  TRACK 84 AUDIO
    TITLE "0:"
    INDEX 01 02:35:47
  TRACK 85 AUDIO
    TITLE "14:cjc040_0043"
    INDEX 01 02:36:29
  TRACK 86 AUDIO
    TITLE "0:"
    INDEX 01 02:39:43
